<svg xmlns="http://www.w3.org/2000/svg" width="24.268" height="24.268" viewBox="0 0 24.268 24.268">
  <path id="pen-square" d="M13.358,39.9l3.006,3.006a.33.33,0,0,1,0,.46L9.014,50.721l-3.093.341a.656.656,0,0,1-.72-.72l.341-3.093L12.892,39.9A.343.343,0,0,1,13.358,39.9Zm5.33-.693-1.631-1.631a1.3,1.3,0,0,0-1.836,0L13.97,38.831a.33.33,0,0,0,0,.46L16.977,42.3a.33.33,0,0,0,.46,0l1.251-1.251a1.3,1.3,0,0,0,0-1.836Zm5.579-4.61V53.668a2.6,2.6,0,0,1-2.6,2.6H2.6a2.6,2.6,0,0,1-2.6-2.6V34.6A2.6,2.6,0,0,1,2.6,32H21.668A2.6,2.6,0,0,1,24.268,34.6Zm-2.6,18.743V34.925a.326.326,0,0,0-.325-.325H2.925a.326.326,0,0,0-.325.325V53.343a.326.326,0,0,0,.325.325H21.343A.326.326,0,0,0,21.668,53.343Z" transform="translate(0 -32)" fill="#f5a900"/>
</svg>
