<svg xmlns="http://www.w3.org/2000/svg" xmlns:xlink="http://www.w3.org/1999/xlink" width="197" height="52.471" viewBox="0 0 197 52.471">
  <defs>
    <clipPath id="clip-path">
      <rect id="Retângulo_1032" data-name="Retângulo 1032" width="197" height="52.471" fill="#f5a900"/>
    </clipPath>
  </defs>
  <g id="Grupo_2048" data-name="Grupo 2048" transform="translate(0 0)">
    <g id="Grupo_2047" data-name="Grupo 2047" transform="translate(0 0)" clip-path="url(#clip-path)">
      <path id="Caminho_202" data-name="Caminho 202" d="M58.929,10.238,62,1.292,29.271,1.3l0,.006L3.445,1.033A21.634,21.634,0,0,1,5.56,2.719l23.148.246L26.875,8.413l-16.933-.2q.429.767.8,1.569l15.581.289L24.5,15.476l-12.081-.145q.13.824.2,1.667l11.326.135-1.861,5.452L12.36,22.5q-.152.87-.372,1.714l9.5.118L19.575,29.81,9.709,29.7q-.5.852-1.077,1.651l10.387.113-1.849,5.486L2.969,36.8A21.619,21.619,0,0,1,0,38.44l28.89.346,4.589-13.515,16.4-.032,3.144-9.123-16.459.017L38.585,10.3Z" transform="translate(0 -0.363)" fill="#f5a900" fill-rule="evenodd"/>
      <path id="Caminho_203" data-name="Caminho 203" d="M183.885.81,149.312.842l-1.986,5.892-.348-.783C144.291,1.15,139.3.5,135.614.153c-8.1-.738-17.06,1.072-20.716,7.67-1.385,3.171-3.214,7.067-.528,11.024,4.235,3.972,9.011,4.242,13.462,5.857a4.67,4.67,0,0,1,2.217,1.425,2.409,2.409,0,0,1,.111,2.161c-1.122,1.844-3.742,2.357-6.063,2.265-1.518-.1-3.429-.136-4.652-1.99-1.233-1.195-.573-3.7-.573-3.7l-11.327,0-.931,4.445c-.16,0-1.765-28.383-1.765-28.383L93.381.919,65.145,38.191l11.319-.067,3.928-5.188,14.462-.04.272,5.213,11.8.011-.188-4.633a14.28,14.28,0,0,0,3.869,3.346c9.205,4.575,17.606,3.748,24.531.124,4.419-2.637,8.232-6.547,8.877-12.92a8.05,8.05,0,0,0-2.545-5.91c-4.744-3.389-9.409-3.495-14.124-5.124-.709-.29-1.717-.815-1.905-1.73.121-1.717,1.561-2.218,2.978-2.634,1.912-.306,3.884-.629,5.914.877.768.776.591,1.662.764,2.467l11.814-.029a2.066,2.066,0,0,0,.428-1.183l9.355.031-9.3,27.283,7.5.016a13.293,13.293,0,0,1,5.646-3.25,89.473,89.473,0,0,1,3.13-9.491l.008-.018.008-.019a3.7,3.7,0,0,1,.542-.864l.42-1.236c-1.084-.088-2.171-.152-3.255-.187h-.369c-1.24,0-3.082.147-4.029,1.064l-.862.836-.508-1.088a2.082,2.082,0,0,1-.183-.874,4.516,4.516,0,0,1,.388-1.578,6.624,6.624,0,0,1,1.386-2.016,5.086,5.086,0,0,1,2.5-1.471l.017,0,.017,0a20.2,20.2,0,0,1,3.991-.372c.932,0,1.869.034,2.806.093l2.333-6.863,11.607-.028ZM86.109,25.325l7.684-9.974.57,9.921Z" transform="translate(-22.899 0)" fill="#f5a900" fill-rule="evenodd"/>
      <path id="Caminho_204" data-name="Caminho 204" d="M248.967,57.326a3.3,3.3,0,0,1-1.115-.211,61.617,61.617,0,0,0,4.238-5.122,21.97,21.97,0,0,1-2.089-9.7,19.136,19.136,0,0,1,.321-3.626c.352-1.3,1.416-1.939,3.174-1.939a9.237,9.237,0,0,1,2.119.312,7.159,7.159,0,0,1,2.391,1.044,24.164,24.164,0,0,0-1.326,7.292q2.5-3.887,5.122-7.563a1.516,1.516,0,0,1,.844-.321,4.264,4.264,0,0,1,.713-.06c.171,0,.412.02.724.05a.969.969,0,0,1,.713.392.479.479,0,0,1,.091.291,1.284,1.284,0,0,1-.322.713q-2.245,2.968-4.44,6.056c-1.044,1.436-2.089,2.852-3.154,4.268a10.018,10.018,0,0,0,1.426,3.635,2.545,2.545,0,0,0,1.989,1.306c1.095,0,2.611-1.567,4.53-4.7.964-1.577,1.537-2.541,1.737-2.923.1-.151.171-.231.231-.231.08,0,.131.11.151.321a11.913,11.913,0,0,1-1.617,4.892,15.367,15.367,0,0,1-3.314,4.087,5.73,5.73,0,0,1-3.626,1.617h-.12a6.853,6.853,0,0,1-5.093-3.174c-.352.433-.7.844-1.064,1.236-1.095,1.366-2.17,2.058-3.234,2.058m-6.89-11.48a4.847,4.847,0,0,0,2.712-.672,2.934,2.934,0,0,0,1.466-2.652,3.1,3.1,0,0,0-.221-1.075.867.867,0,0,0-.833-.633,3.069,3.069,0,0,0-1.768,1.175,10.842,10.842,0,0,0-1.617,2.712,6.832,6.832,0,0,0-.442,1.115Zm-.763,10.978a12.023,12.023,0,0,1-3.073-.482,5.35,5.35,0,0,1-3.043-2.491,9.961,9.961,0,0,1-1.175-5,16.906,16.906,0,0,1,.482-3.787,14.5,14.5,0,0,1,1.687-4.1,10.7,10.7,0,0,1,3.033-3.314,7.093,7.093,0,0,1,4.178-1.276,5.7,5.7,0,0,1,3.434.995,5.342,5.342,0,0,1,1.9,2.53,5.656,5.656,0,0,1,.321,1.859,6.094,6.094,0,0,1-.15,1.326,6.219,6.219,0,0,1-2.531,4,5.99,5.99,0,0,1-3.084.944c-.1,0-.452-.02-1.065-.06a1.757,1.757,0,0,1-1.355-.643,11.993,11.993,0,0,0-.412,2.963,14.421,14.421,0,0,0,.22,2.039A2.485,2.485,0,0,0,242.64,54.2a2.222,2.222,0,0,0,.652.09,6.082,6.082,0,0,0,2.19-.562,6.745,6.745,0,0,0,2.631-2.26,46.015,46.015,0,0,0,2.531-4.178c.191-.341.342-.582.442-.753s.171-.251.231-.251c.1,0,.15.11.15.321a11.46,11.46,0,0,1-1.587,4.771,13.635,13.635,0,0,1-2.33,3.093,8.808,8.808,0,0,1-4.087,2.109,9.856,9.856,0,0,1-2.15.241m-14.091.382H227.1a3.534,3.534,0,0,1-3.2-2.531,11.466,11.466,0,0,1-.5-3.536,35.788,35.788,0,0,1,1.506-9.15,96.888,96.888,0,0,1,3.737-11,2.949,2.949,0,0,1,2.18-1.647,6.614,6.614,0,0,1,1.406-.15,10.452,10.452,0,0,1,2.18.291,7.026,7.026,0,0,1,2.35,1,31.323,31.323,0,0,0-2.2,4.539c-1.025,2.39-2.059,5.022-3.093,7.925a72.668,72.668,0,0,0-2.35,7.6,11.065,11.065,0,0,0-.392,2.5c0,.723.191,1.085.562,1.085a3.066,3.066,0,0,0,2.029-1.266,35.067,35.067,0,0,0,3.826-5.855c.221-.492.382-.733.5-.733.1,0,.15.11.15.321a12.045,12.045,0,0,1-1.607,4.892,15,15,0,0,1-3.314,4.087,5.8,5.8,0,0,1-3.646,1.617m-22.217,4.74a6.68,6.68,0,0,1-3.917-1.617,4.916,4.916,0,0,1-1.848-3.917,19.9,19.9,0,0,1,.251-2.149q.241-1.7,2.731-4.389a13.44,13.44,0,0,1,6.519-3.757,97.3,97.3,0,0,1,3.475-10.625,2.855,2.855,0,0,1,2.149-1.678,7.53,7.53,0,0,1,1.346-.121,10.8,10.8,0,0,1,2.23.291,7.424,7.424,0,0,1,2.39,1,33.238,33.238,0,0,0-1.818,3.706c-.844,1.909-1.717,4.078-2.621,6.539a15.4,15.4,0,0,1,2.119.14c.452.08.984.2,1.617.351a7.718,7.718,0,0,1,.612-2.44,1.176,1.176,0,0,1,.884-.532,4.711,4.711,0,0,1,.653-.05,5.27,5.27,0,0,1,1.8.321,19.721,19.721,0,0,0-1.185,2.732,7.171,7.171,0,0,0-.442,2.33,4.074,4.074,0,0,0,.09.853,8.042,8.042,0,0,0-3.615-.853,22.916,22.916,0,0,0-3.737.382c-.371,1.315-.934,2.912-1.677,4.79a25.926,25.926,0,0,1-2.8,5.273,7.886,7.886,0,0,1-3.967,3.2,3.642,3.642,0,0,1-1.236.211m20.951-28.755a75.716,75.716,0,0,1-8.537-.733,84.1,84.1,0,0,0-8.5-.733h-.412c-2.36,0-4.017.471-4.982,1.406a1.315,1.315,0,0,1-.11-.553,3.92,3.92,0,0,1,.351-1.356,6.131,6.131,0,0,1,1.305-1.878,4.546,4.546,0,0,1,2.25-1.326,20.838,20.838,0,0,1,4.118-.382,62.629,62.629,0,0,1,6.3.382,68.406,68.406,0,0,0,7.121.381c.16,0,.914-.01,2.259-.02a14.362,14.362,0,0,0,5.273-1.426,8.125,8.125,0,0,1,.211,1.768,4.939,4.939,0,0,1-.733,2.732,4.371,4.371,0,0,1-3.124,1.566,21.511,21.511,0,0,1-2.792.171M203.53,59.707c1.356-.2,2.551-2.42,3.6-6.679.573-2.33.854-3.606.854-3.827a8.907,8.907,0,0,0-5.323,3.616,7.723,7.723,0,0,0-1.3,3.977,13.971,13.971,0,0,0,.191,1.617c.121.844.783,1.276,1.979,1.3" transform="translate(-70.036 -9.475)" fill="#fff"/>
    </g>
  </g>
</svg>
