<svg xmlns="http://www.w3.org/2000/svg" xmlns:xlink="http://www.w3.org/1999/xlink" width="66.658" height="69.579" viewBox="0 0 66.658 69.579">
  <defs>
    <linearGradient id="linear-gradient" x1="0.5" x2="0.5" y2="1" gradientUnits="objectBoundingBox">
      <stop offset="0" stop-color="#f5a900"/>
      <stop offset="1" stop-color="#f6ca37"/>
    </linearGradient>
  </defs>
  <path id="Caminho_240" data-name="Caminho 240" d="M-1350.923,352.472-1377,339.7a7.206,7.206,0,0,0-6.38,0l-26.077,12.774a7.3,7.3,0,0,0-4.062,6.512v29.906a7.286,7.286,0,0,0,4.141,6.551l26.077,12.386a7.24,7.24,0,0,0,3.112.705,7.247,7.247,0,0,0,3.111-.7L-1351,395.442a7.286,7.286,0,0,0,4.141-6.551V358.985A7.3,7.3,0,0,0-1350.923,352.472Zm-30.658-9.1a3.159,3.159,0,0,1,1.391-.32,3.167,3.167,0,0,1,1.391.32l25.231,12.359-5.505,2.678-26.721-12.973Zm1.391,25.309-26.621-12.951,8.132-3.983,26.109,13.227Zm-10.266-20.962,26.7,12.965-4.2,2.044-26.125-13.235Zm24.53,18.572,4.771-2.321-.092,8.084-4.68,2.486Zm-41.7,25.455a3.175,3.175,0,0,1-1.805-2.856V359.007l27.194,13.229v31.571Zm54.867,0-25.388,12.059V372.235l8.128-3.954v13.065l12.832-6.818.142-12.558,2.649-1.288h0l3.443-1.674v29.884A3.175,3.175,0,0,1-1352.757,391.747Z" transform="translate(1413.519 -338.953)" fill="url(#linear-gradient)"/>
</svg>
