<svg xmlns="http://www.w3.org/2000/svg" xmlns:xlink="http://www.w3.org/1999/xlink" width="66.658" height="75.726" viewBox="0 0 66.658 75.726">
  <defs>
    <linearGradient id="linear-gradient" x1="0.5" x2="0.5" y2="1" gradientUnits="objectBoundingBox">
      <stop offset="0" stop-color="#f5a900"/>
      <stop offset="1" stop-color="#f6ca37"/>
    </linearGradient>
  </defs>
  <g id="Grupo_2124" data-name="Grupo 2124" transform="translate(1604.589 -335.146)">
    <path id="Caminho_246" data-name="Caminho 246" d="M-1603.034,426.819a2.508,2.508,0,0,1-1.542-2.6c.058-1.376.006-2.758.016-4.137a6.624,6.624,0,0,1,6.637-6.611q7.314-.021,14.63.011c.709,0,.958-.2.915-.913a25.741,25.741,0,0,1,0-2.806c.031-.634-.222-.786-.815-.784-6.207.016-12.414-.032-18.619.037a2.521,2.521,0,0,1-2.773-2.8,26.666,26.666,0,0,1,6.885-18.143,28.553,28.553,0,0,1,9.822-6.942,38.378,38.378,0,0,1,13.133-3.145c1.226-.076,1.224-.1,1.224-1.349,0-.813-.022-1.626.007-2.438.019-.513-.168-.693-.683-.688-1.921.021-3.842.012-5.763.006a2.219,2.219,0,0,1-2.427-2.28,2.22,2.22,0,0,1,2.454-2.253q8.681-.006,17.363,0a2.22,2.22,0,0,1,2.452,2.254,2.219,2.219,0,0,1-2.428,2.279c-1.9.005-3.793.02-5.689-.01-.585-.009-.781.187-.759.766.037.984.023,1.971,0,2.955-.008.421.127.625.575.663a52.645,52.645,0,0,1,5.556.7,33.228,33.228,0,0,1,15.776,7.27,25.753,25.753,0,0,1,8.848,16.311,27.065,27.065,0,0,1,.294,4.265,2.26,2.26,0,0,1-2.531,2.553q-9.31,0-18.619,0c-1.023,0-1.023,0-1.024,1,0,.887.037,1.776-.013,2.659-.037.655.194.84.84.837,4.8-.024,9.605.009,14.408-.022a6.656,6.656,0,0,1,5.532,2.592,6.062,6.062,0,0,1,1.393,3.737c.026,1.477-.035,2.957.024,4.433a2.512,2.512,0,0,1-1.543,2.6Zm31.782-22.37h27.49c.221,0,.443-.006.665,0,.355.006.473-.165.437-.511a21.859,21.859,0,0,0-3.251-9.634c-3.225-5.039-7.907-8.139-13.486-10a37.955,37.955,0,0,0-15.8-1.642,31.586,31.586,0,0,0-14.192,4.581,21.374,21.374,0,0,0-10.368,16.2c-.121,1.012-.116,1.014.943,1.014Zm-.079,17.885h27.7c.221,0,.443,0,.664,0,.292,0,.479-.113.473-.429a9.843,9.843,0,0,0-.1-2.132,2.075,2.075,0,0,0-1.673-1.663,5.694,5.694,0,0,0-1.32-.1h-51.339c-.222,0-.444-.006-.665,0a2.3,2.3,0,0,0-2.432,2.416c-.015.27-.006.542-.006.812,0,1.1,0,1.1,1.069,1.1Zm.079-8.868c1.942,0,3.885-.015,5.826.009.556.007.808-.131.781-.742-.044-1.006-.034-2.016,0-3.023.016-.536-.154-.736-.712-.734q-5.9.028-11.8,0c-.567,0-.719.215-.7.742.029.982.036,1.967,0,2.949-.024.6.163.821.788.81C-1575.137,413.443-1573.194,413.465-1571.251,413.465Z" transform="translate(0 -15.948)" fill="url(#linear-gradient)"/>
    <path id="Caminho_247" data-name="Caminho 247" d="M-1570.993,347.344a2.182,2.182,0,0,1,1.212-2.128,2.01,2.01,0,0,1,2.357.164,28.5,28.5,0,0,1,3.7,3.694,2.218,2.218,0,0,1-.211,2.907,2.13,2.13,0,0,1-2.885.306,26.023,26.023,0,0,1-3.852-3.845A1.533,1.533,0,0,1-1570.993,347.344Z" transform="translate(-15.835 -4.605)" fill="url(#linear-gradient)"/>
    <path id="Caminho_248" data-name="Caminho 248" d="M-1518.928,347.371a2.083,2.083,0,0,1-.715,1.6c-.98,1-1.958,2.007-2.973,2.973a2.283,2.283,0,0,1-3.361.06,2.346,2.346,0,0,1,.137-3.369c.994-1.022,2-2.038,3.035-3.015a2.152,2.152,0,0,1,2.52-.46A2.208,2.208,0,0,1-1518.928,347.371Z" transform="translate(-36.754 -4.614)" fill="url(#linear-gradient)"/>
    <path id="Caminho_249" data-name="Caminho 249" d="M-1541.293,339.726c0,.787.016,1.575,0,2.361a2.194,2.194,0,0,1-2.3,2.174,2.18,2.18,0,0,1-2.221-2.182c-.021-1.6-.025-3.2,0-4.8a2.178,2.178,0,0,1,2.263-2.137,2.189,2.189,0,0,1,2.258,2.144C-1541.275,338.1-1541.293,338.914-1541.293,339.726Z" transform="translate(-27.697)" fill="url(#linear-gradient)"/>
  </g>
</svg>
