<svg xmlns="http://www.w3.org/2000/svg" width="20.915" height="23.902" viewBox="0 0 20.915 23.902">
  <path id="trash-alt" d="M12.511,19.421h1.12a.56.56,0,0,0,.56-.56V8.777a.56.56,0,0,0-.56-.56h-1.12a.56.56,0,0,0-.56.56V18.86A.56.56,0,0,0,12.511,19.421ZM20.168,3.735H16.32L14.733,1.088A2.241,2.241,0,0,0,12.811,0H8.1A2.241,2.241,0,0,0,6.182,1.088L4.594,3.735H.747A.747.747,0,0,0,0,4.482v.747a.747.747,0,0,0,.747.747h.747V21.661A2.241,2.241,0,0,0,3.735,23.9H17.18a2.241,2.241,0,0,0,2.241-2.241V5.976h.747a.747.747,0,0,0,.747-.747V4.482A.747.747,0,0,0,20.168,3.735ZM8.022,2.377a.28.28,0,0,1,.241-.136h4.388a.28.28,0,0,1,.24.136l.815,1.358h-6.5ZM17.18,21.661H3.735V5.976H17.18Zm-9.9-2.241H8.4a.56.56,0,0,0,.56-.56V8.777a.56.56,0,0,0-.56-.56H7.283a.56.56,0,0,0-.56.56V18.86A.56.56,0,0,0,7.283,19.421Z" fill="#f5a900"/>
</svg>
